<?xml version="1.0" encoding="utf-8"?>
<!-- Generator: Adobe Illustrator 24.1.0, SVG Export Plug-In . SVG Version: 6.00 Build 0)  -->
<svg version="1.1" id="Layer_1" xmlns="http://www.w3.org/2000/svg" xmlns:xlink="http://www.w3.org/1999/xlink" x="0px" y="0px"
	 viewBox="0 0 32 32" style="enable-background:new 0 0 32 32;" xml:space="preserve">
<style type="text/css">
	.st0{fill:#999999;}
</style>
<g>
	<path class="st0" d="M32,27c0,1.7-1.3,3-3,3H3c-1.7,0-3-1.3-3-3V9c0-1.7,1.3-3,3-3h5.5l0.8-2.1C9.7,2.8,10.8,2,12.1,2h7.8
		c1.3,0,2.4,0.8,2.8,1.9L23.5,6H29c1.7,0,3,1.3,3,3V27z M16,10.5c-4.1,0-7.5,3.4-7.5,7.5s3.4,7.5,7.5,7.5s7.5-3.4,7.5-7.5
		S20.1,10.5,16,10.5z M16,23.5c-3,0-5.5-2.5-5.5-5.5s2.5-5.5,5.5-5.5s5.5,2.5,5.5,5.5S19,23.5,16,23.5z"/>
</g>
</svg>
